<svg xmlns="http://www.w3.org/2000/svg" width="29" height="28.998" viewBox="0 0 29 28.998">
  <g id="call-outline" transform="translate(-1 -1.018)">
    <g id="Group_16" data-name="Group 16" transform="translate(1 1.018)">
      <g id="Group_15" data-name="Group 15" transform="translate(0 0)">
        <path id="Path_11" data-name="Path 11" d="M29.239,23.389l-5.87-3.914a1.713,1.713,0,0,0-2.294.373l-1.71,2.2a.731.731,0,0,1-.937.2l-.325-.179a19.655,19.655,0,0,1-5.123-4.023,19.735,19.735,0,0,1-4.024-5.123l-.178-.325a.732.732,0,0,1,.193-.94l2.2-1.709a1.714,1.714,0,0,0,.373-2.294L7.628,1.779a1.7,1.7,0,0,0-2.3-.517L2.876,2.736A3.462,3.462,0,0,0,1.3,4.785c-.884,3.22-.219,8.778,7.968,16.967,6.513,6.512,11.362,8.264,14.694,8.264a8.562,8.562,0,0,0,2.271-.3A3.459,3.459,0,0,0,28.28,28.14l1.476-2.453A1.7,1.7,0,0,0,29.239,23.389Zm-.316,1.8-1.472,2.455a2.5,2.5,0,0,1-1.474,1.142c-2.973.816-8.167.14-16.027-7.72S1.413,8.014,2.229,5.041A2.5,2.5,0,0,1,3.373,3.565L5.828,2.092a.739.739,0,0,1,1,.224L8.951,5.509l1.785,2.677a.744.744,0,0,1-.161,1l-2.2,1.709a1.691,1.691,0,0,0-.448,2.171l.174.317a20.5,20.5,0,0,0,4.189,5.345,20.523,20.523,0,0,0,5.344,4.188l.317.175a1.691,1.691,0,0,0,2.171-.448l1.709-2.2a.744.744,0,0,1,1-.161L28.7,24.194A.739.739,0,0,1,28.923,25.191Z" transform="translate(-1 -1.018)"/>
        <path id="Path_12" data-name="Path 12" d="M283.111,70.29a8.225,8.225,0,0,1,8.215,8.215.483.483,0,1,0,.966,0,9.192,9.192,0,0,0-9.182-9.182.483.483,0,0,0,0,.966Z" transform="translate(-266.679 -65.456)"/>
        <path id="Path_13" data-name="Path 13" d="M283.111,121.49a5.322,5.322,0,0,1,5.316,5.316.483.483,0,1,0,.966,0,6.29,6.29,0,0,0-6.282-6.282.483.483,0,0,0,0,.966Z" transform="translate(-266.679 -113.756)"/>
        <path id="Path_14" data-name="Path 14" d="M283.111,172.69a2.419,2.419,0,0,1,2.416,2.416.483.483,0,0,0,.966,0,3.387,3.387,0,0,0-3.383-3.383.483.483,0,1,0,0,.966Z" transform="translate(-266.679 -162.057)"/>
      </g>
    </g>
  </g>
</svg>
