<svg xmlns="http://www.w3.org/2000/svg" xmlns:xlink="http://www.w3.org/1999/xlink" width="33" height="26" viewBox="0 0 33 26">
  <defs>
    <clipPath id="clip-path">
      <rect id="Rectangle_393" data-name="Rectangle 393" width="33" height="26" transform="translate(-0.187)" fill="#123871"/>
    </clipPath>
  </defs>
  <g id="delete-icon" transform="translate(0.187)" clip-path="url(#clip-path)">
    <g id="delete" transform="translate(7.24 -0.96)">
      <path id="Path_266" data-name="Path 266" d="M197.113,1.565h4.332v.729h1.564V1.462A1.463,1.463,0,0,0,201.548,0H197.01a1.464,1.464,0,0,0-1.462,1.462v.831h1.565Zm0,0" transform="translate(-189.197 0)" fill="#123871"/>
      <path id="Path_267" data-name="Path 267" d="M78.483,261.454H63.8a.689.689,0,0,0-.687.745l1.228,15.182a1.631,1.631,0,0,0,1.625,1.5H76.317a1.631,1.631,0,0,0,1.625-1.5L79.169,262.2a.689.689,0,0,0-.687-.745Zm-11.13,15.807-.049,0a.782.782,0,0,1-.78-.734l-.769-12.463a.782.782,0,0,1,1.562-.1l.769,12.463A.782.782,0,0,1,67.353,277.261Zm4.578-.781a.782.782,0,0,1-1.565,0V264.017a.782.782,0,1,1,1.565,0Zm4.594-12.417-.735,12.463a.782.782,0,0,1-.78.736h-.047a.782.782,0,0,1-.735-.827l.734-12.464a.782.782,0,0,1,1.562.092Zm0,0" transform="translate(-61.059 -252.963)" fill="#123871"/>
      <path id="Path_268" data-name="Path 268" d="M20.13,121l-.514-1.54a1,1,0,0,0-.944-.68H1.491a.994.994,0,0,0-.943.68L.034,121a.646.646,0,0,0,.612.85H19.518a.637.637,0,0,0,.342-.1A.644.644,0,0,0,20.13,121Zm0,0" transform="translate(-0.001 -114.925)" fill="#123871"/>
    </g>
  </g>
</svg>
