<svg xmlns="http://www.w3.org/2000/svg" width="52" height="51.971" viewBox="0 0 52 51.971">
  <path id="exit" d="M32.583,37.76h4.061v8.121a6.1,6.1,0,0,1-6.091,6.09H6.09A6.1,6.1,0,0,1,0,45.881V6.09A6.1,6.1,0,0,1,6.09,0H30.553a6.1,6.1,0,0,1,6.091,6.09v8.121H32.583V6.09a2.032,2.032,0,0,0-2.03-2.03H6.09A2.033,2.033,0,0,0,4.06,6.09V45.881a2.033,2.033,0,0,0,2.03,2.03H30.553a2.032,2.032,0,0,0,2.03-2.03ZM42.43,16.415l-2.871,2.871,4.669,4.67H17.967v4.06H44.228l-4.669,4.669,2.871,2.871L52,25.986Zm0,0" transform="translate(0 0)" fill="#005e90"/>
</svg>
