<svg id="facebook" xmlns="http://www.w3.org/2000/svg" width="35.188" height="35.188" viewBox="0 0 35.188 35.188">
  <path id="Path_84" data-name="Path 84" d="M33.245,0H1.94A1.942,1.942,0,0,0,0,1.942v31.3a1.942,1.942,0,0,0,1.942,1.941h31.3a1.942,1.942,0,0,0,1.942-1.941h0V1.941A1.942,1.942,0,0,0,33.245,0Zm0,0" transform="translate(0 0)" fill="#4267b2"/>
  <path id="Path_85" data-name="Path 85" d="M217.068,107.2V93.59h4.587l.687-5.326h-5.275V84.871c0-1.539.427-2.587,2.633-2.587h2.8V77.534a37.586,37.586,0,0,0-4.1-.209c-4.055,0-6.83,2.474-6.83,7.02v3.92H207V93.59h4.57V107.2Zm0,0" transform="translate(-192.774 -72.01)" fill="#fff"/>
</svg>
