<svg xmlns="http://www.w3.org/2000/svg" width="31" height="28.593" viewBox="0 0 31 28.593">
  <path id="heart" d="M21.025,0A7.99,7.99,0,0,0,14.5,3.4,7.99,7.99,0,0,0,7.975,0C3.726,0,0,3.953,0,8.458c0,4.391,2.479,8.914,7.171,13.079a38.576,38.576,0,0,0,7.107,4.992.484.484,0,0,0,.444,0,38.58,38.58,0,0,0,7.105-4.992C26.521,17.372,29,12.849,29,8.458,29,3.953,25.274,0,21.025,0ZM14.5,25.55C12.725,24.571.967,17.727.967,8.458.967,4.467,4.241.967,7.975.967a7.022,7.022,0,0,1,6.1,3.572.5.5,0,0,0,.842,0,7.022,7.022,0,0,1,6.1-3.572c3.734,0,7.008,3.5,7.008,7.492,0,9.268-11.758,16.112-13.533,17.092Zm0,0" transform="translate(1 1)" fill="#fff" stroke="#fff" stroke-width="2"/>
</svg>
