<svg id="instagram-t" xmlns="http://www.w3.org/2000/svg" xmlns:xlink="http://www.w3.org/1999/xlink" width="35.188" height="35.187" viewBox="0 0 35.188 35.187">
  <defs>
    <linearGradient id="linear-gradient" x1="0.084" y1="0.916" x2="0.916" y2="0.084" gradientUnits="objectBoundingBox">
      <stop offset="0" stop-color="#ffd600"/>
      <stop offset="0.5" stop-color="#ff0100"/>
      <stop offset="1" stop-color="#d800b9"/>
    </linearGradient>
    <linearGradient id="linear-gradient-2" x1="0.146" y1="0.854" x2="0.854" y2="0.146" gradientUnits="objectBoundingBox">
      <stop offset="0" stop-color="#ff6400"/>
      <stop offset="0.5" stop-color="#ff0100"/>
      <stop offset="1" stop-color="#fd0056"/>
    </linearGradient>
    <linearGradient id="linear-gradient-3" x1="0.146" y1="0.854" x2="0.854" y2="0.146" gradientUnits="objectBoundingBox">
      <stop offset="0" stop-color="#f30072"/>
      <stop offset="1" stop-color="#e50097"/>
    </linearGradient>
  </defs>
  <path id="Path_120" data-name="Path 120" d="M35.082,10.34a12.917,12.917,0,0,0-.818-4.271,8.623,8.623,0,0,0-2.029-3.116A8.625,8.625,0,0,0,29.118.923,12.914,12.914,0,0,0,24.847.106C22.971.02,22.372,0,17.594,0S12.216.02,10.34.106A12.918,12.918,0,0,0,6.069.924,8.623,8.623,0,0,0,2.953,2.953,8.624,8.624,0,0,0,.923,6.069,12.916,12.916,0,0,0,.106,10.34C.02,12.216,0,12.815,0,17.593s.02,5.378.106,7.254a12.913,12.913,0,0,0,.818,4.271,8.622,8.622,0,0,0,2.029,3.116,8.621,8.621,0,0,0,3.116,2.029,12.91,12.91,0,0,0,4.271.818c1.877.086,2.476.106,7.254.106s5.378-.02,7.254-.106a12.911,12.911,0,0,0,4.271-.818,8.995,8.995,0,0,0,5.145-5.145,12.912,12.912,0,0,0,.818-4.271c.085-1.877.106-2.476.106-7.254s-.02-5.378-.106-7.254ZM31.915,24.7a9.734,9.734,0,0,1-.606,3.267,5.826,5.826,0,0,1-3.339,3.339,9.734,9.734,0,0,1-3.267.606c-1.855.085-2.411.1-7.109.1s-5.255-.018-7.11-.1a9.738,9.738,0,0,1-3.267-.606,5.452,5.452,0,0,1-2.023-1.316A5.45,5.45,0,0,1,3.878,27.97,9.734,9.734,0,0,1,3.272,24.7c-.085-1.855-.1-2.412-.1-7.109s.018-5.254.1-7.11a9.741,9.741,0,0,1,.606-3.267A5.455,5.455,0,0,1,5.194,5.194,5.447,5.447,0,0,1,7.217,3.878a9.732,9.732,0,0,1,3.267-.606c1.855-.085,2.412-.1,7.109-.1h0c4.7,0,5.254.018,7.11.1a9.736,9.736,0,0,1,3.267.606,5.455,5.455,0,0,1,2.023,1.316,5.447,5.447,0,0,1,1.316,2.023,9.726,9.726,0,0,1,.606,3.267c.085,1.855.1,2.412.1,7.109s-.018,5.254-.1,7.11Zm0,0" transform="translate(0 0)" fill="url(#linear-gradient)"/>
  <path id="Path_121" data-name="Path 121" d="M133.573,124.539a9.035,9.035,0,1,0,9.035,9.035A9.035,9.035,0,0,0,133.573,124.539Zm0,14.9a5.865,5.865,0,1,1,5.865-5.865A5.865,5.865,0,0,1,133.573,139.438Zm0,0" transform="translate(-115.98 -115.98)" fill="url(#linear-gradient-2)"/>
  <path id="Path_122" data-name="Path 122" d="M366.152,90.737a2.111,2.111,0,1,1-2.111-2.111A2.111,2.111,0,0,1,366.152,90.737Zm0,0" transform="translate(-337.056 -82.534)" fill="url(#linear-gradient-3)"/>
</svg>
