<svg xmlns="http://www.w3.org/2000/svg" width="35.188" height="35.187" viewBox="0 0 35.188 35.187">
  <path id="linkedin" d="M32,0H3.183A3.183,3.183,0,0,0,0,3.183V32a3.183,3.183,0,0,0,3.183,3.183H32A3.183,3.183,0,0,0,35.188,32V3.183A3.183,3.183,0,0,0,32,0ZM10.889,30.383a.926.926,0,0,1-.926.926H6.019a.926.926,0,0,1-.926-.926V13.854a.926.926,0,0,1,.926-.926H9.962a.926.926,0,0,1,.926.926ZM7.991,11.37a3.746,3.746,0,1,1,3.746-3.746A3.746,3.746,0,0,1,7.991,11.37Zm23.5,19.088a.852.852,0,0,1-.852.852H26.412a.852.852,0,0,1-.852-.852V22.7c0-1.157.339-5.068-3.023-5.068-2.608,0-3.137,2.677-3.243,3.879v8.942a.852.852,0,0,1-.852.852H14.351a.852.852,0,0,1-.852-.852V13.78a.852.852,0,0,1,.852-.852h4.092a.852.852,0,0,1,.852.852v1.442c.967-1.451,2.4-2.571,5.463-2.571,6.775,0,6.736,6.33,6.736,9.808v8Z" fill="#0077b7"/>
</svg>
