<svg xmlns="http://www.w3.org/2000/svg" width="52" height="44.704" viewBox="0 0 52 44.704">
  <g id="money" transform="translate(0 -28.588)">
    <g id="Group_184" data-name="Group 184" transform="translate(0 28.588)">
      <g id="Group_183" data-name="Group 183">
        <path id="Path_224" data-name="Path 224" d="M51.927,53.884h0L42.109,29.232a1.021,1.021,0,0,0-1.326-.571h0L.952,44.521a1,1,0,0,0-.408.325A1.009,1.009,0,0,0,0,45.732v26.54a1.021,1.021,0,0,0,1.021,1.021H43.893a1.021,1.021,0,0,0,1.021-1.021V57.777l6.443-2.566A1.021,1.021,0,0,0,51.927,53.884ZM42.873,71.251H2.042v-24.5H42.873ZM17.032,44.716l17.092-6.811a8.121,8.121,0,0,0,5.852,2.523l1.7,4.287ZM44.914,55.584V45.732a1.021,1.021,0,0,0-1.021-1.021h-.016l-2.163-5.433a.845.845,0,0,0-.084-.129,1.008,1.008,0,0,0-1.067-.786,6.1,6.1,0,0,1-5.352-2.3,1.012,1.012,0,0,0-1.31-.229,1.147,1.147,0,0,0-.144.027L12.891,44.166a1.008,1.008,0,0,0-.56.545H5.994l34.6-13.775,9.063,22.758Z" transform="translate(0 -28.588)" fill="#303030"/>
        <path id="Path_225" data-name="Path 225" d="M32.729,202.511a6.1,6.1,0,0,1,4.121,4.116,1.021,1.021,0,0,0,.978.729.934.934,0,0,0,.157-.023.95.95,0,0,0,.14.029h24.5a.88.88,0,0,0,.125-.026.95.95,0,0,0,1.148-.7v-.006a6.1,6.1,0,0,1,4.121-4.121,1.008,1.008,0,0,0,.7-1.123,1.028,1.028,0,0,0,.03-.151V193.07a.922.922,0,0,0-.031-.151,1.006,1.006,0,0,0-.7-1.123,6.1,6.1,0,0,1-4.119-4.122,1.008,1.008,0,0,0-1.131-.7.972.972,0,0,0-.144-.029h-24.5a.963.963,0,0,0-.152.031,1.008,1.008,0,0,0-1.123.7,6.1,6.1,0,0,1-4.121,4.12,1.008,1.008,0,0,0-.7,1.123,1.03,1.03,0,0,0-.029.151v8.166a.941.941,0,0,0,.029.142A1.011,1.011,0,0,0,32.729,202.511Zm1.313-9.027a8.1,8.1,0,0,0,4.5-4.5H62.208a8.1,8.1,0,0,0,4.5,4.5v7.337a8.109,8.109,0,0,0-4.5,4.5H38.539a8.109,8.109,0,0,0-4.5-4.5Z" transform="translate(-27.917 -166.739)" fill="#303030"/>
        <path id="Path_226" data-name="Path 226" d="M134.125,231.194A6.125,6.125,0,1,0,128,225.07,6.125,6.125,0,0,0,134.125,231.194Zm0-10.208a4.083,4.083,0,1,1-4.083,4.083A4.083,4.083,0,0,1,134.125,220.987Z" transform="translate(-111.668 -194.656)" fill="#303030"/>
        <path id="Path_227" data-name="Path 227" d="M77.531,258.007A1.531,1.531,0,1,0,76,256.476,1.531,1.531,0,0,0,77.531,258.007Zm0-2.042a.51.51,0,1,1-.51.51A.51.51,0,0,1,77.531,255.966Z" transform="translate(-66.303 -226.063)" fill="#303030"/>
        <path id="Path_228" data-name="Path 228" d="M253.531,258.007A1.531,1.531,0,1,0,252,256.476,1.531,1.531,0,0,0,253.531,258.007Zm0-2.042a.51.51,0,1,1-.51.51A.51.51,0,0,1,253.531,255.966Z" transform="translate(-219.846 -226.063)" fill="#303030"/>
      </g>
    </g>
  </g>
</svg>
