<svg xmlns="http://www.w3.org/2000/svg" width="29.253" height="28.47" viewBox="0 0 29.253 28.47">
  <g id="shopping-cart" transform="translate(0 -6.028)">
    <g id="Group_14" data-name="Group 14" transform="translate(0 6.028)">
      <g id="Group_13" data-name="Group 13">
        <path id="Path_8" data-name="Path 8" d="M99.707,350.322a3.054,3.054,0,1,0,3.054,3.054A3.054,3.054,0,0,0,99.707,350.322Zm0,4.751a1.7,1.7,0,1,1,1.7-1.7A1.7,1.7,0,0,1,99.707,355.073Z" transform="translate(-90.375 -327.96)"/>
        <path id="Path_9" data-name="Path 9" d="M298.238,350.322a3.054,3.054,0,1,0,3.054,3.054A3.054,3.054,0,0,0,298.238,350.322Zm0,4.751a1.7,1.7,0,1,1,1.7-1.7A1.7,1.7,0,0,1,298.238,355.073Z" transform="translate(-276.012 -327.96)"/>
        <path id="Path_10" data-name="Path 10" d="M29.115,10.575a.848.848,0,0,0-.543-.271L6.481,10,5.87,8.132a3.122,3.122,0,0,0-2.918-2.1H.679a.679.679,0,0,0,0,1.357H2.952A1.765,1.765,0,0,1,4.581,8.573l4.309,13-.339.78A3.257,3.257,0,0,0,8.857,25.3,3.156,3.156,0,0,0,11.4,26.727H24.6a.679.679,0,1,0,0-1.357H11.4a1.731,1.731,0,0,1-1.425-.814,1.866,1.866,0,0,1-.17-1.629l.271-.611,14.286-1.493a3.733,3.733,0,0,0,3.224-2.85l1.629-6.821A.577.577,0,0,0,29.115,10.575Zm-2.85,7.092a2.307,2.307,0,0,1-2.07,1.8L10.078,20.925,6.922,11.356l20.8.305Z" transform="translate(0 -6.028)"/>
      </g>
    </g>
  </g>
</svg>
