<svg xmlns="http://www.w3.org/2000/svg" width="35" height="35" viewBox="0 0 35 35">
  <g id="twitter" transform="translate(-0.398)">
    <rect id="Rectangle_213" data-name="Rectangle 213" width="35" height="35" transform="translate(0.398)" fill="#50abf1"/>
    <path id="Path_119" data-name="Path 119" d="M60.359,114.709a15.149,15.149,0,0,0,23.245-12.8q0-.313-.012-.623a11.9,11.9,0,0,0,2.633-2.7,12.286,12.286,0,0,1-3.007.78h-.01l.008-.005c.137-.092,2.053-1.4,2.313-2.95a18.452,18.452,0,0,1-2.58,1.076c-.249.083-.51.164-.779.24a5.315,5.315,0,0,0-9.057,4.835A16.006,16.006,0,0,1,62.2,97.043s-2.54,3.468,1.514,7.034a5.461,5.461,0,0,1-2.3-.684,5.051,5.051,0,0,0,4.2,5.276,4.863,4.863,0,0,1-2.345.1,5.239,5.239,0,0,0,4.885,3.712,10.209,10.209,0,0,1-7.8,2.23Z" transform="translate(-55.858 -88.626)" fill="#fff"/>
  </g>
</svg>
