<svg xmlns="http://www.w3.org/2000/svg" width="28" height="29.293" viewBox="0 0 28 29.293">
  <g id="user-outline" transform="translate(-11.328)">
    <g id="Group_18" data-name="Group 18" transform="translate(11.328 14.684)">
      <g id="Group_17" data-name="Group 17">
        <path id="Path_15" data-name="Path 15" d="M25.328,257.323a14.016,14.016,0,0,0-14,14,.609.609,0,0,0,1.217,0,12.783,12.783,0,1,1,25.565,0,.609.609,0,0,0,1.217,0A14.015,14.015,0,0,0,25.328,257.323Z" transform="translate(-11.328 -257.323)"/>
      </g>
    </g>
    <g id="Group_20" data-name="Group 20" transform="translate(18.632)">
      <g id="Group_19" data-name="Group 19">
        <path id="Path_16" data-name="Path 16" d="M146.024,0a6.7,6.7,0,1,0,6.7,6.7A6.7,6.7,0,0,0,146.024,0Zm0,12.174A5.478,5.478,0,1,1,151.5,6.7,5.485,5.485,0,0,1,146.024,12.174Z" transform="translate(-139.328)"/>
      </g>
    </g>
  </g>
</svg>
