<svg xmlns="http://www.w3.org/2000/svg" width="52" height="53.567" viewBox="0 0 52 53.567">
  <g id="reward" transform="translate(-0.001)">
    <path id="Path_243" data-name="Path 243" d="M24.382,297.5v-1.078c0-.026,0-.052,0-.078-.419-4.187-2.249-6.953-5.292-8l-2.885-1-5.184-4.4a2.007,2.007,0,0,0-3.033,2.542l-.417-.192L5.221,282.47l-1.063-2.7A2.153,2.153,0,0,0,.134,281.3l1.211,3.285a.761.761,0,0,0,.078.156l3.24,4.988a.821.821,0,0,0,.06.081,12.051,12.051,0,0,0,4.1,3.121,14.172,14.172,0,0,1,4.367,2.864,3.246,3.246,0,0,1,.825,1.837,1.562,1.562,0,0,0-.77,1.345v2.3a1.562,1.562,0,0,0,1.561,1.561h9.055a1.562,1.562,0,0,0,1.561-1.561v-2.3a1.564,1.564,0,0,0-1.041-1.472Zm-14.9-6a10.471,10.471,0,0,1-3.53-2.674L2.787,283.96l-1.181-3.2a.584.584,0,0,1,.417-.771.588.588,0,0,1,.675.355l1.108,2.819a.8.8,0,0,0,.126.214l2.54,3.062a.782.782,0,0,0,.276.212l3.891,1.791,2.052,2.334a.785.785,0,0,0,1.179-1.036l-2.162-2.459-.016-.017-2.3-2.489a.438.438,0,0,1,.609-.629l5.3,4.5a.783.783,0,0,0,.251.143l3.026,1.05c2.448.841,3.874,3.073,4.238,6.633v.95h-7.24a4.894,4.894,0,0,0-1.229-2.688A15.626,15.626,0,0,0,9.482,291.5Zm14.372,9.768H14.816v-2.288h9.038Zm0,0" transform="translate(0 -249.275)" fill="#005e90"/>
    <path id="Path_244" data-name="Path 244" d="M279.194,279.532a2.154,2.154,0,0,0-3.9.236l-1.063,2.7-2.346,2.829-.415.191a2.008,2.008,0,0,0-3.035-2.542l-5.185,4.4-2.882,1c-3.045,1.046-4.875,3.812-5.294,8a.706.706,0,0,0,0,.078V297.5a1.563,1.563,0,0,0-1.041,1.472v2.3a1.563,1.563,0,0,0,1.561,1.561h9.055a1.562,1.562,0,0,0,1.561-1.561v-2.3a1.563,1.563,0,0,0-.77-1.346,3.246,3.246,0,0,1,.825-1.837,14.18,14.18,0,0,1,4.367-2.864,12.047,12.047,0,0,0,4.1-3.121.675.675,0,0,0,.06-.081l3.24-4.987a.775.775,0,0,0,.078-.156l1.211-3.284A2.153,2.153,0,0,0,279.194,279.532Zm-14.556,21.742H255.6v-2.288h9.038Zm13.21-20.516-1.181,3.2L273.5,288.83a10.47,10.47,0,0,1-3.53,2.674,15.612,15.612,0,0,0-4.861,3.224,4.891,4.891,0,0,0-1.229,2.688h-7.24v-.949c.365-3.56,1.79-5.792,4.241-6.634l3.023-1.049a.789.789,0,0,0,.251-.143l5.3-4.5a.442.442,0,0,1,.593.024.436.436,0,0,1,.021.6l-2.305,2.494-.016.017-2.162,2.459a.785.785,0,0,0,1.179,1.036l2.052-2.334,3.891-1.791a.784.784,0,0,0,.276-.212l2.54-3.062a.784.784,0,0,0,.126-.214l1.108-2.819a.587.587,0,0,1,.675-.356.584.584,0,0,1,.417.771Zm0,0" transform="translate(-227.453 -249.275)" fill="#005e90"/>
    <path id="Path_245" data-name="Path 245" d="M369.744,92.626,371.462,94l-.584,2.119a1.107,1.107,0,0,0,1.678,1.22l1.835-1.21,1.836,1.21a1.108,1.108,0,0,0,1.678-1.22L377.323,94l1.718-1.372a1.108,1.108,0,0,0-.641-1.973l-2.2-.1L375.43,88.5a1.108,1.108,0,0,0-2.074,0l-.774,2.058-2.2.1a1.108,1.108,0,0,0-.641,1.973Zm3.426-.529a.784.784,0,0,0,.7-.508l.524-1.394.524,1.394a.784.784,0,0,0,.7.508l1.487.068-1.164.929a.785.785,0,0,0-.267.821l.4,1.436-1.243-.819a.784.784,0,0,0-.864,0l-1.243.819.4-1.436a.785.785,0,0,0-.267-.821l-1.164-.929Zm0,0" transform="translate(-330.685 -78.594)" fill="#005e90"/>
    <path id="Path_246" data-name="Path 246" d="M31.27,92.626,32.988,94l-.584,2.12a1.108,1.108,0,0,0,1.678,1.219l1.836-1.21,1.835,1.21a1.108,1.108,0,0,0,1.678-1.22L38.848,94l1.718-1.372a1.108,1.108,0,0,0-.641-1.973l-2.2-.1L36.955,88.5a1.108,1.108,0,0,0-2.074,0l-.774,2.058-2.2.1a1.108,1.108,0,0,0-.641,1.973Zm3.425-.529a.784.784,0,0,0,.7-.508l.524-1.394.524,1.394a.784.784,0,0,0,.7.508l1.487.068-1.164.929a.785.785,0,0,0-.267.821l.4,1.436-1.243-.819a.784.784,0,0,0-.864,0l-1.243.819.4-1.436a.785.785,0,0,0-.267-.821l-1.164-.929Zm0,0" transform="translate(-27.623 -78.594)" fill="#005e90"/>
    <path id="Path_247" data-name="Path 247" d="M200.506,4.849l1.718,1.372-.584,2.119a1.108,1.108,0,0,0,1.678,1.219l1.836-1.21,1.835,1.21a1.108,1.108,0,0,0,1.678-1.22l-.584-2.119L209.8,4.849a1.108,1.108,0,0,0-.641-1.973l-2.2-.1L206.192.718a1.108,1.108,0,0,0-2.074,0l-.774,2.058-2.2.1a1.108,1.108,0,0,0-.641,1.973Zm3.426-.528a.784.784,0,0,0,.7-.508l.524-1.394.524,1.394a.785.785,0,0,0,.7.508l1.487.067-1.164.929a.784.784,0,0,0-.267.821l.4,1.436-1.243-.82a.785.785,0,0,0-.864,0l-1.243.82.4-1.436a.784.784,0,0,0-.267-.821l-1.164-.929Zm0,0" transform="translate(-179.154)" fill="#005e90"/>
    <path id="Path_248" data-name="Path 248" d="M148.41,124.888a13.244,13.244,0,1,0-13.244,13.244A13.259,13.259,0,0,0,148.41,124.888Zm-13.244,11.675a11.675,11.675,0,1,1,11.675-11.675A11.688,11.688,0,0,1,135.166,136.563Zm0,0" transform="translate(-109.165 -99.963)" fill="#005e90"/>
    <path id="Path_249" data-name="Path 249" d="M150.917,148.378a.786.786,0,0,0,.9-.648,8.839,8.839,0,0,1,17.441,0,.785.785,0,0,0,.773.658.759.759,0,0,0,.128-.011.784.784,0,0,0,.647-.9,10.408,10.408,0,0,0-20.538,0,.785.785,0,0,0,.647.9Zm0,0" transform="translate(-134.538 -124.248)" fill="#005e90"/>
    <path id="Path_250" data-name="Path 250" d="M170.161,245.742a.785.785,0,0,0-.9.647,8.839,8.839,0,0,1-17.441,0,.785.785,0,1,0-1.549.254,10.408,10.408,0,0,0,20.538,0,.784.784,0,0,0-.647-.9Zm0,0" transform="translate(-134.538 -220.022)" fill="#005e90"/>
    <path id="Path_251" data-name="Path 251" d="M223.17,191.965c.2,0,.394-.145.394-.3v-.447a2.547,2.547,0,0,0,2.392-2.708c0-1.788-1.249-2.366-2.392-2.786v-2.668c.92.066,1.262.486,1.577.486.394,0,.578-.5.578-.749,0-.644-1.262-.92-2.155-.947v-.355c0-.158-.2-.3-.394-.3a.347.347,0,0,0-.381.3v.381a2.439,2.439,0,0,0-2.5,2.444c0,1.683,1.314,2.156,2.5,2.576v3.088c-1.34-.105-1.7-1.025-2.129-1.025-.329,0-.6.434-.6.749,0,.644,1.1,1.524,2.734,1.551v.407A.347.347,0,0,0,223.17,191.965Zm.316-4.784a1.537,1.537,0,0,1,1.157,1.472,1.25,1.25,0,0,1-1.157,1.3Zm-1.88-3c0-.683.526-1.012,1.262-1.1v2.392C222.171,185.21,221.605,184.933,221.605,184.184Zm0,0" transform="translate(-197.031 -162.231)" fill="#005e90"/>
  </g>
</svg>
